<svg width="32" height="32" xmlns="http://www.w3.org/2000/svg"><g fill="#FFF" fill-rule="nonzero"><path d="M31.83 9.422c-.122-2.553-.705-4.814-2.575-6.677C27.392.882 25.131.299 22.578.17 19.947.02 12.06.02 9.429.17 6.884.29 4.622.875 2.752 2.738.882 4.6.306 6.862.178 9.415c-.15 2.631-.15 10.517 0 13.149.12 2.552.704 4.814 2.574 6.677 1.87 1.863 4.124 2.446 6.677 2.574 2.631.15 10.518.15 13.149 0 2.553-.12 4.814-.704 6.677-2.574 1.863-1.863 2.446-4.125 2.574-6.677.15-2.632.15-10.51 0-13.142zm-3.4 15.965a5.378 5.378 0 0 1-3.03 3.029c-2.097.832-7.075.64-9.393.64-2.318 0-7.303.185-9.394-.64a5.378 5.378 0 0 1-3.029-3.03c-.832-2.097-.64-7.075-.64-9.393 0-2.318-.185-7.303.64-9.394a5.378 5.378 0 0 1 3.03-3.03c2.097-.831 7.075-.64 9.393-.64 2.318 0 7.303-.184 9.394.64a5.378 5.378 0 0 1 3.03 3.03c.831 2.098.64 7.076.64 9.394 0 2.318.191 7.303-.64 9.394z"/><path d="M13.82 25v-8.05H11v-3.2h2.82v-2.52c0-2.74 1.75-4.23 4.305-4.23 1.224 0 2.276.088 2.58.127v2.861h-1.771c-1.39 0-1.658.633-1.658 1.558v2.204h3.136l-.43 3.2h-2.706V25"/></g></svg>