<svg width="32" height="32" xmlns="http://www.w3.org/2000/svg"><path d="M16.007 7.822a8.158 8.158 0 0 0-8.17 8.17 8.158 8.158 0 0 0 8.17 8.172 8.158 8.158 0 0 0 8.17-8.171 8.158 8.158 0 0 0-8.17-8.17zm0 13.483a5.322 5.322 0 0 1-5.312-5.312 5.317 5.317 0 0 1 5.312-5.312 5.317 5.317 0 0 1 5.312 5.312c0 2.93-2.39 5.312-5.312 5.312zm10.41-13.817c0 1.06-.853 1.906-1.905 1.906a1.906 1.906 0 1 1 1.906-1.906zm5.412 1.934c-.12-2.553-.704-4.814-2.574-6.677C27.392.882 25.131.299 22.578.17 19.947.02 12.06.02 9.429.17 6.884.29 4.622.875 2.752 2.738.882 4.6.306 6.862.178 9.415c-.15 2.631-.15 10.517 0 13.149.12 2.552.704 4.814 2.574 6.677 1.87 1.863 4.124 2.446 6.677 2.574 2.631.15 10.518.15 13.149 0 2.553-.12 4.814-.704 6.677-2.574 1.863-1.863 2.446-4.125 2.574-6.677.15-2.632.15-10.51 0-13.142zM28.43 25.387a5.378 5.378 0 0 1-3.03 3.029c-2.097.832-7.075.64-9.393.64-2.318 0-7.303.185-9.394-.64a5.378 5.378 0 0 1-3.029-3.03c-.832-2.097-.64-7.075-.64-9.393 0-2.318-.185-7.303.64-9.394a5.378 5.378 0 0 1 3.03-3.03c2.097-.831 7.075-.64 9.393-.64 2.318 0 7.303-.184 9.394.64a5.378 5.378 0 0 1 3.03 3.03c.831 2.098.64 7.076.64 9.394 0 2.318.191 7.303-.64 9.394z" fill="#FFF" fill-rule="nonzero"/></svg>