<svg width="222" height="170" xmlns="http://www.w3.org/2000/svg" xmlns:xlink="http://www.w3.org/1999/xlink" aria-labelledby="uniqueTitleID"><title id="uniqueTitleID">Adriatic Sunsets</title><defs><path d="M205.039 170H16.96C6.215 152.908 0 132.68 0 111 0 49.696 49.696 0 111 0s111 49.696 111 111c0 21.68-6.215 41.908-16.961 59z" id="path-1"/></defs><g id="Page-1" fill="none" fill-rule="evenodd"><g id="Desktop-HD" transform="translate(-584 -119)"><g id="logo" transform="translate(584 119)"><g id="sun"><mask id="mask-2" fill="#fff"><use xlink:href="#path-1"/></mask><use id="Combined-Shape" fill="#FBB040" xlink:href="#path-1"/><path id="Rectangle-13" fill="#EE3135" mask="url(#mask-2)" d="M-17 137h254v36H-17z"/><path id="Rectangle-13-Copy" fill="#F15A29" mask="url(#mask-2)" d="M-17 84h254v53H-17z"/><path id="Rectangle-13-Copy-2" fill="#F7941E" mask="url(#mask-2)" d="M-17 31h254v53H-17z"/></g><g id="text" transform="translate(19 44)" fill="#FFF"><path d="M9.86 38.35c1.598 0 3.193-.479 4.794-1.434 1.596-.956 3.193-2.233 4.789-3.843a19.515 19.515 0 0 0 4.613-.742 95.521 95.521 0 0 0 4.467-1.408 165.45 165.45 0 0 1-4.291 7.043c-1.462 2.27-2.987 4.276-4.567 6.018-1.578 1.74-3.235 3.14-4.962 4.2-1.73 1.058-3.562 1.589-5.488 1.589-1.365 0-2.58-.352-3.643-1.052a9.317 9.317 0 0 1-2.67-2.662 11.596 11.596 0 0 1-1.572-3.535C.995 41.242.882 40.04.979 38.913c.1-1.195.26-2.175.475-2.944.215-.769.459-1.392.723-1.87.267-.546.569-.973.898-1.28a8.838 8.838 0 0 0 1.347 2.764c.499.686 1.19 1.316 2.072 1.895.882.58 2.006.872 3.366.872" id="Fill-289"/><path d="M40.873 30.115c-.509 1.478-.834 2.78-.969 3.906-.129 1.126-.14 2.124-.018 2.994.121.872.335 1.617.652 2.234a6.567 6.567 0 0 0 1.107 1.582c.974 1.003 2.25 1.668 3.831 1.998-.758 1.151-1.613 2.131-2.569 2.943-.838.675-1.84 1.236-3.02 1.678-1.183.442-2.523.46-4.03.053-.819-.219-1.596-.67-2.334-1.352-.738-.68-1.298-1.647-1.682-2.897-.388-1.25-.528-2.788-.416-4.612.114-1.829.616-4.01 1.524-6.542" id="Fill-291"/><path d="M41.115 30.37c.41.171.734.37.972.59.24.223.43.434.563.64.136.24.24.478.307.718.446 0 .801-.24 1.075-.718.275-.478.404-1.04.386-1.689-.018-.65-.188-1.323-.514-2.024-.322-.7-.862-1.256-1.613-1.666a71.19 71.19 0 0 1 1.795-5.223 99.689 99.689 0 0 1 1.971-4.739 84.05 84.05 0 0 1 1.974-4.123 69.512 69.512 0 0 1 1.841-3.38c.513-.341 1.126-.752 1.845-1.228.716-.48 1.402-1 2.05-1.563a12.032 12.032 0 0 0 1.663-1.742c.46-.596.723-1.202.795-1.818.067-.682-.11-1.22-.539-1.611-.428-.394-.879-.575-1.358-.538-1.33 0-2.793.613-4.377 1.843-1.589 1.228-3.203 2.918-4.842 5.069-1.706.513-3.406 1.443-5.096 2.792-1.69 1.35-3.38 2.954-5.073 4.814a118.995 118.995 0 0 0-5.094 6.02c-1.707 2.15-3.399 4.268-5.07 6.35-1.71.207-3.52.307-5.43.307-1.16 0-2.15-.076-2.97-.23-.819-.152-1.519-.35-2.099-.59-.582-.236-1.045-.503-1.386-.793-.339-.29-.596-.57-.766-.845-.274 0-.564.205-.873.615-.307.409-.546.92-.716 1.535-.172.616-.213 1.282-.128 1.998.085.719.377 1.385.872 1.999.496.616 1.247 1.127 2.252 1.536 1.008.41 2.348.614 4.023.614a25.31 25.31 0 0 0 5.144-.511c1.657-.342 3.331-.726 5.021-1.153a91.105 91.105 0 0 1 5.225-1.152c1.792-.343 3.695-.514 5.712-.514a5.976 5.976 0 0 1 1.075.104 2.608 2.608 0 0 0-.512-.052h-.563m-.592-11.14a82.116 82.116 0 0 0-2.943 6.94 56.288 56.288 0 0 0-4.097.461 154.401 154.401 0 0 1 5.121-7.785c1.705-2.424 3.483-4.404 5.325-5.941a76.54 76.54 0 0 0-3.406 6.325" id="Fill-293"/><path d="M76.29 30.37c.239-.443.497-.725.77-.844.27-.119.51-.128.716-.026.203.102.333.3.385.59.05.29-.011.64-.182 1.05-.41.886-.88 1.913-1.406 3.074A93.473 93.473 0 0 1 74.83 37.8a49.548 49.548 0 0 1-2.05 3.61 21.739 21.739 0 0 1-2.355 3.149c-.836.922-1.71 1.663-2.611 2.229-.905.562-1.852.845-2.842.845-1.13 0-2.102-.24-2.922-.72a6.02 6.02 0 0 1-2.024-1.92c-.528-.802-.913-1.732-1.15-2.791a15.07 15.07 0 0 1-.36-3.33v-.484c0-.154.016-.316.052-.487-.242.48-.453.998-.64 1.563-.19.562-.368 1.187-.538 1.867a20.84 20.84 0 0 1-1.767 2.05 21.712 21.712 0 0 1-2.1 1.894 10.778 10.778 0 0 1-2.304 1.409 5.919 5.919 0 0 1-2.434.538c-.787 0-1.443-.17-1.973-.513a4.483 4.483 0 0 1-1.305-1.279 5.337 5.337 0 0 1-.743-1.69 6.933 6.933 0 0 1-.228-1.69c0-2.664.533-5.215 1.609-7.658 1.076-2.442 2.41-4.61 3.999-6.505 1.584-1.896 3.294-3.405 5.12-4.534 1.826-1.126 3.508-1.69 5.043-1.69.753 0 1.41.07 1.975.206.563.136 1.032.325 1.406.563a103.67 103.67 0 0 1 2.898-5.838 83.397 83.397 0 0 1 2.892-5.02c.923-1.47 1.766-2.64 2.533-3.506.769-.874 1.392-1.31 1.872-1.31.615 0 .92.327.92.974 0 .478-.187 1.288-.562 2.433a123.691 123.691 0 0 1-1.41 4.022c-.563 1.535-1.175 3.208-1.843 5.018a145.204 145.204 0 0 0-1.87 5.405 82.559 82.559 0 0 0-1.51 5.223c-.428 1.69-.685 3.186-.77 4.482-.086 1.299.044 2.333.385 3.1.342.767.99 1.153 1.948 1.153.987 0 2.058-.712 3.199-2.127 1.145-1.416 2.452-3.439 3.92-6.07m-22.384 6.4c.408 0 .897-.185 1.46-.562a11.436 11.436 0 0 0 1.718-1.434c.58-.58 1.143-1.194 1.688-1.843a54.266 54.266 0 0 0 1.486-1.843c.305-.923.648-1.877 1.025-2.868.374-.991.767-1.98 1.175-2.973-.273-.1-.612-.152-1.02-.152-.618 0-1.327.29-2.128.87a17.144 17.144 0 0 0-2.41 2.151 23.174 23.174 0 0 0-2.25 2.819c-.702 1.023-1.228 1.962-1.59 2.815-.355.854-.494 1.57-.41 2.153.086.58.503.867 1.256.867" id="Fill-295"/><path d="M83.163 25.044c0-.443-.164-.759-.488-.949a8.07 8.07 0 0 1-1.008-.69c-.414.922-.823 1.81-1.236 2.664-.413.853-.802 1.638-1.162 2.357-.36.715-.677 1.314-.954 1.791-.275.48-.447.785-.514.923-.174.306-.382.495-.62.563a.82.82 0 0 1-.644-.052c-.19-.1-.318-.272-.386-.51-.071-.24-.02-.497.155-.77.138-.239.352-.63.643-1.178a42.6 42.6 0 0 0 .955-1.92c.343-.733.706-1.502 1.084-2.305.377-.802.7-1.58.98-2.33a7.625 7.625 0 0 1-2.167-1.333 8.227 8.227 0 0 1-1.495-1.74c-.448-.684-.67-1.52-.67-2.51 0-1.16.412-2.134 1.235-2.92.826-.785 1.735-1.272 2.733-1.462.998-.186 1.909-.025 2.733.487.826.513 1.235 1.47 1.235 2.87 0 .581-.05 1.178-.153 1.793a14.537 14.537 0 0 1-.356 1.638 14.65 14.65 0 0 1-.513 1.691c.48.101 1.077.324 1.793.666.716.34 1.417.776 2.102 1.305a7.752 7.752 0 0 1 1.737 1.895c.478.735.72 1.546.72 2.432 0 .514-.171 1.146-.513 1.897-.342.75-.734 1.536-1.18 2.356a92.497 92.497 0 0 1-1.381 2.458c-.476.82-.844 1.556-1.1 2.202-.256.65-.36 1.18-.307 1.59.05.41.367.614.947.614.51 0 1.115-.179 1.817-.538.699-.358 1.45-.889 2.256-1.588.802-.7 1.638-1.562 2.508-2.586a30.678 30.678 0 0 0 2.536-3.485c.27-.443.553-.725.846-.843.288-.12.526-.129.715-.026.19.102.3.3.335.588.033.29-.053.64-.257 1.051-.512.886-1.11 1.913-1.795 3.073-.681 1.162-.937 2.355-1.756 3.586a60.366 60.366 0 0 1-2.613 3.611 27.171 27.171 0 0 1-2.867 3.15c-.991.921-1.992 1.662-2.997 2.227-1.01.562-1.665.818-3.491.845-.891.013-1.615-.215-2.177-.639a4.589 4.589 0 0 1-1.332-1.59 6.393 6.393 0 0 1-.642-2.074 8.546 8.546 0 0 1-.05-2.1c.136-1.536.563-3.158 1.279-4.866a58.277 58.277 0 0 1 2.306-4.865 335.071 335.071 0 0 1 2.2-4.072c.65-1.178.974-1.97.974-2.382" id="Fill-297"/><path d="M106.368 30.37c.239-.443.495-.725.766-.844.273-.119.511-.128.719-.026.205.102.33.3.382.59.052.29-.008.64-.177 1.05a77.558 77.558 0 0 0-1.336 3.074 99.986 99.986 0 0 1-1.558 3.586 54.418 54.418 0 0 1-1.823 3.61 20.908 20.908 0 0 1-2.096 3.149c-.752.922-1.553 1.663-2.41 2.229a4.92 4.92 0 0 1-2.763.845c-.889 0-1.621-.266-2.204-.796a5.788 5.788 0 0 1-1.381-1.944 9.002 9.002 0 0 1-.691-2.41 15.548 15.548 0 0 1-.181-2.225c0-.99.17-2.145.513-3.46a38.364 38.364 0 0 1 1.305-4.046 44.95 44.95 0 0 1 1.792-4.07 38.961 38.961 0 0 1 2-3.56c.663-1.043 1.287-1.88 1.867-2.512.58-.63 1.058-.947 1.436-.947.886 0 1.332.462 1.332 1.384 0 .17-.096.512-.281 1.024-.19.511-.42 1.144-.694 1.895-.27.75-.564 1.58-.87 2.485a69.803 69.803 0 0 0-.868 2.74 35.46 35.46 0 0 0-.694 2.689c-.187.871-.282 1.63-.282 2.278 0 .992.186 1.642.566 1.948.373.306.8.462 1.278.462.99 0 1.938-.712 2.843-2.127.904-1.416 2.072-3.439 3.51-6.07m-4.151-11.063c-.442 0-.736-.308-.87-.922-.138-.616-.153-1.392-.052-2.33.102-.94.317-1.948.64-3.023a16.958 16.958 0 0 1 1.23-3.022c.494-.938 1.057-1.714 1.691-2.33.632-.615 1.305-.923 2.02-.923 1.468 0 2.433.308 2.897.923.46.615.596 1.392.41 2.33-.19.94-.635 1.948-1.334 3.023a25.388 25.388 0 0 1-2.305 3.022c-.835.938-1.654 1.714-2.456 2.33-.801.614-1.426.922-1.871.922" id="Fill-299"/><path d="M130.333 30.37c.24-.443.497-.725.77-.844.271-.119.513-.128.717-.026.205.102.33.3.383.59.051.29-.01.64-.178 1.05-.409.886-.89 1.913-1.435 3.074a119.925 119.925 0 0 1-1.767 3.586 50.277 50.277 0 0 1-2.048 3.61 23.296 23.296 0 0 1-2.33 3.149c-.82.922-1.682 1.663-2.587 2.229-.904.562-1.854.845-2.844.845-.886 0-1.613-.216-2.176-.64a4.285 4.285 0 0 1-1.308-1.666 7.91 7.91 0 0 1-.613-2.252 19.307 19.307 0 0 1-.152-2.409c0-.58.067-1.211.202-1.894.136-.682.343-1.384.617-2.1-.41.75-.805 1.647-1.18 2.688a19.303 19.303 0 0 0-.87 3.508 17.63 17.63 0 0 1-3.049 3.023c-1.143.889-2.348 1.33-3.61 1.33-.786 0-1.442-.17-1.972-.511a4.467 4.467 0 0 1-1.304-1.28 5.343 5.343 0 0 1-.746-1.69 7.073 7.073 0 0 1-.226-1.69c0-2.664.534-5.215 1.61-7.658 1.075-2.442 2.408-4.61 3.997-6.505 1.586-1.896 3.296-3.405 5.12-4.534 1.826-1.126 3.51-1.69 5.045-1.69 1.503 0 2.64.265 3.405.794.77.53 1.265 1.12 1.486 1.768.224.648.25 1.237.078 1.766-.17.529-.427.796-.769.796a.505.505 0 0 1-.46-.258c-.103-.17-.23-.366-.384-.588-.155-.223-.392-.418-.717-.588-.324-.173-.83-.258-1.51-.258-.616 0-1.326.292-2.127.872a17.26 17.26 0 0 0-2.41 2.15 23.361 23.361 0 0 0-2.25 2.819c-.702 1.023-1.229 1.962-1.59 2.815-.355.854-.495 1.57-.41 2.153.086.58.502.867 1.255.867.481 0 1.027-.218 1.64-.663a15.427 15.427 0 0 0 1.844-1.587 22.616 22.616 0 0 0 1.718-1.922c.527-.666.947-1.22 1.254-1.663l.46-.616c0-.032.006-.052.024-.052.02 0 .03-.017.03-.052l.048-.05v.05c.513-.681 1.016-1.228 1.511-1.638.495-.41.93-.614 1.308-.614.613 0 .918.324.918.974 0 .17-.074.503-.228.998a35.499 35.499 0 0 0-.487 1.767 44.43 44.43 0 0 0-.485 2.203 11.564 11.564 0 0 0-.232 2.252c0 .992.196 1.642.59 1.948.391.306.825.462 1.305.462.991 0 2.057-.712 3.2-2.127 1.145-1.416 2.452-3.439 3.92-6.07" id="Fill-301"/><path d="M144.728 16.593c-1.332.205-2.673.401-4.023.59" id="Fill-303"/><path d="M149.308 15.241c-.17-.64-.542-1.2-1.117-1.679-.576-.482-1.392-.83-2.446-1.046a7.903 7.903 0 0 0-1.518-.145l.19-.506c.58-1.614 1.058-2.942 1.436-3.988.375-1.048.564-1.64.564-1.775 0-.93-.46-1.392-1.383-1.392-.203 0-.512.206-.923.618-.408.413-.887.988-1.432 1.727a58.56 58.56 0 0 0-1.821 2.628 90.13 90.13 0 0 0-2.073 3.325c-.751.102-1.511.188-2.28.255-.767.07-1.542.102-2.33.102-.99 0-1.774-.117-2.354-.357-.582-.24-1.01-.51-1.281-.82a2.392 2.392 0 0 1-.665-1.179c-.581 0-1.002.352-1.258 1.05-.685 1.864.084 4.587 1.815 5.651 1.15.707 2.59.75 3.9.707.497-.016.986-.042 1.463-.077-.99 1.878-1.62 3.203-2.642 5.423a103.095 103.095 0 0 0-2.77 6.557 67.924 67.924 0 0 0-2.018 6.094c-.531 1.913-.795 3.483-.795 4.712 0 .923.17 1.776.509 2.561a6.574 6.574 0 0 0 1.387 2.05 6.45 6.45 0 0 0 2.073 1.381 6.5 6.5 0 0 0 2.586.514c1.024 0 1.98-.283 2.868-.845.888-.565 1.725-1.307 2.509-2.228a20.082 20.082 0 0 0 2.176-3.15 55.482 55.482 0 0 0 1.87-3.61 80.772 80.772 0 0 0 1.59-3.586 43.215 43.215 0 0 1 1.383-3.073c.202-.41.273-.76.202-1.05-.068-.29-.202-.487-.41-.589-.202-.103-.441-.094-.715.025-.274.12-.533.401-.767.844-1.503 2.632-2.726 4.654-3.662 6.071-.941 1.416-1.924 2.126-2.947 2.126a2.08 2.08 0 0 1-1.308-.46c-.392-.308-.587-.957-.587-1.949 0-.512.189-1.442.563-2.79a93.643 93.643 0 0 1 1.436-4.61 547.052 547.052 0 0 1 1.866-5.429c.666-1.896 1.308-3.68 1.925-5.355a14.651 14.651 0 0 1 1.566-.07c.85.011 1.57.083 2.16.214.59.133 1.076.303 1.456.517.376.213.687.427.93.644.267-.04.527-.273.77-.694.245-.423.402-.925.465-1.508a5.034 5.034 0 0 0-.156-1.836" id="Fill-305"/><path d="M156.97 67.235c-.17-.64-.542-1.2-1.117-1.68-.576-.48-1.391-.83-2.446-1.045a7.903 7.903 0 0 0-1.518-.145l.19-.506c.58-1.614 1.058-2.943 1.436-3.988.375-1.048.564-1.64.564-1.775 0-.93-.46-1.392-1.383-1.392-.203 0-.512.205-.923.618-.408.413-.887.988-1.432 1.727a58.56 58.56 0 0 0-1.821 2.628 90.13 90.13 0 0 0-2.073 3.325c-.751.102-1.51.188-2.28.255-.767.07-1.542.101-2.33.101-.99 0-1.774-.116-2.355-.356s-1.01-.51-1.28-.82a2.383 2.383 0 0 1-.665-1.179c-.581 0-1.002.352-1.258 1.05-.684 1.864.085 4.587 1.815 5.651 1.15.707 2.59.75 3.9.707.497-.015.986-.042 1.463-.077-.99 1.878-1.62 3.203-2.642 5.423a102.496 102.496 0 0 0-2.77 6.557 67.733 67.733 0 0 0-2.018 6.094c-.531 1.913-.796 3.483-.796 4.712 0 .923.17 1.776.51 2.561a6.586 6.586 0 0 0 1.387 2.05 6.45 6.45 0 0 0 2.073 1.381 6.5 6.5 0 0 0 2.586.514 5.265 5.265 0 0 0 2.868-.845c.888-.565 1.725-1.307 2.509-2.228a20.014 20.014 0 0 0 2.176-3.15 55.482 55.482 0 0 0 1.87-3.61 80.772 80.772 0 0 0 1.59-3.586 43.46 43.46 0 0 1 1.383-3.074c.202-.41.273-.76.202-1.05-.068-.29-.202-.487-.41-.588-.202-.103-.441-.094-.715.025-.274.12-.532.401-.767.844-1.503 2.632-2.726 4.654-3.662 6.071-.941 1.415-1.924 2.126-2.947 2.126-.478 0-.916-.155-1.307-.46-.393-.308-.588-.957-.588-1.949 0-.512.189-1.442.563-2.79a93.643 93.643 0 0 1 1.436-4.61 547.052 547.052 0 0 1 1.866-5.429c.666-1.896 1.308-3.68 1.925-5.355a14.662 14.662 0 0 1 1.566-.07c.85.01 1.57.083 2.16.214.59.132 1.077.303 1.456.517.376.213.687.427.93.644.267-.04.527-.273.77-.695.245-.422.403-.924.465-1.507a5.034 5.034 0 0 0-.156-1.836" id="Fill-307"/><path d="M156.762 30.37c.24-.443.496-.725.766-.844.274-.119.514-.128.72-.026.202.102.332.3.381.59.054.29-.007.64-.179 1.05a79.505 79.505 0 0 0-1.33 3.074 100.183 100.183 0 0 1-1.563 3.586 54.395 54.395 0 0 1-1.82 3.61 20.91 20.91 0 0 1-2.098 3.149c-.752.922-1.554 1.663-2.408 2.229a4.934 4.934 0 0 1-2.766.845c-.887 0-1.62-.266-2.2-.796a5.763 5.763 0 0 1-1.384-1.944 9 9 0 0 1-.69-2.41 15.709 15.709 0 0 1-.182-2.225c0-.99.17-2.145.512-3.46a37.728 37.728 0 0 1 1.31-4.046 43.85 43.85 0 0 1 1.791-4.07 38.502 38.502 0 0 1 1.998-3.56c.663-1.043 1.287-1.88 1.868-2.512.58-.63 1.056-.947 1.434-.947.888 0 1.333.462 1.333 1.384 0 .17-.097.512-.28 1.024a667.78 667.78 0 0 0-.697 1.895c-.27.75-.562 1.58-.867 2.485a68.192 68.192 0 0 0-.87 2.74 34.956 34.956 0 0 0-.692 2.689c-.19.871-.286 1.63-.286 2.278 0 .992.19 1.642.567 1.948a1.97 1.97 0 0 0 1.281.462c.99 0 1.938-.712 2.841-2.127.906-1.416 2.075-3.439 3.51-6.07m-4.15-11.063c-.442 0-.734-.308-.87-.922-.138-.616-.153-1.392-.053-2.33.104-.94.316-1.948.641-3.023a17.106 17.106 0 0 1 1.23-3.022c.495-.938 1.057-1.714 1.692-2.33.631-.615 1.303-.923 2.02-.923 1.467 0 2.432.308 2.897.923.458.615.594 1.392.408 2.33-.188.94-.633 1.948-1.332 3.023a25.494 25.494 0 0 1-2.305 3.022c-.837.938-1.656 1.714-2.459 2.33-.8.614-1.424.922-1.869.922" id="Fill-309"/><path d="M176.736 30.37c.237-.443.495-.725.766-.844.275-.119.506-.128.693-.026.186.102.315.3.383.59.067.29.017.64-.155 1.05-.409.886-.879 1.913-1.406 3.074a59.859 59.859 0 0 1-1.792 3.586 31.181 31.181 0 0 1-2.305 3.61 18.058 18.058 0 0 1-2.972 3.149 14.22 14.22 0 0 1-3.74 2.229c-1.383.562-2.926.845-4.635.845a6.95 6.95 0 0 1-2.894-.614 7.775 7.775 0 0 1-2.379-1.663 7.713 7.713 0 0 1-1.615-2.489 8.007 8.007 0 0 1-.591-3.07c0-2.493.513-4.868 1.538-7.12 1.023-2.255 2.236-4.244 3.636-5.968 1.399-1.724 2.824-3.09 4.278-4.099 1.451-1.005 2.619-1.51 3.51-1.51.783 0 1.31.19 1.585.563.274.378.41.752.41 1.128a6.737 6.737 0 0 1 1.844-1.256c.648-.29 1.262-.434 1.842-.434.788 0 1.292.129 1.514.384.222.256.333.52.333.793 0 .446-.207 1.017-.618 1.718-.408.7-.868 1.407-1.381 2.125-.51.716-.973 1.4-1.383 2.048-.409.648-.612 1.128-.612 1.433 0 .172-.08.325-.232.462-.154.137-.453.204-.898.204a2.28 2.28 0 0 1-1.791-.819c-.479-.547-.717-1.246-.717-2.099 0-.786.171-1.607.513-2.46a43.329 43.329 0 0 0-1.563 1.768 14.955 14.955 0 0 0-1.587 2.305c-.498.87-.908 1.854-1.232 2.944-.325 1.095-.484 2.14-.484 3.472 0 1.128.231 1.982.691 2.563.459.58 1.066.93 1.815 1.047.753.122 1.615.01 2.588-.33.977-.343 1.982-.89 3.025-1.64 1.04-.752 2.08-1.533 3.125-2.677 1.041-1.145 2.001-2.467 2.893-3.971" id="Fill-311"/><path d="M40.707 88.544c0-.619-.386-1.293-1.15-2.021-.766-.728-1.716-1.502-2.851-2.324-1.132-.82-2.362-1.72-3.686-2.694a32.247 32.247 0 0 1-3.688-3.16 18.148 18.148 0 0 1-2.85-3.649 8.173 8.173 0 0 1-1.153-4.23c0-2.787.673-5.242 2.015-7.367a18.177 18.177 0 0 1 5.177-5.341c2.11-1.441 4.446-2.533 7.01-3.277 2.563-.744 5.066-1.116 7.507-1.116 1.81 0 3.467.361 4.965 1.08 1.499.721 2.773 1.657 3.82 2.809a12.635 12.635 0 0 1 2.43 3.935c.575 1.469.864 2.945.864 4.433 0 1.482-.252 2.869-.758 4.151-.504 1.287-1.174 2.4-2.01 3.344a9.522 9.522 0 0 1-2.88 2.226c-1.08.543-2.178.814-3.295.814-.768 0-1.454-.109-2.067-.327a8.26 8.26 0 0 1-1.593-.74 7.546 7.546 0 0 1-1.412-1.068c.207-.094.687-.45 1.438-1.069.749-.619 1.535-1.47 2.354-2.551.818-1.085 1.542-2.392 2.172-3.925.625-1.53.937-3.24.937-5.129 0-.556-.031-1.082-.101-1.575-.073-.496-.211-.921-.418-1.278a2.29 2.29 0 0 0-.918-.858c-.4-.218-.934-.328-1.596-.328-.94 0-2.136.357-3.58 1.069-1.448.712-2.86 1.687-4.24 2.926a18.873 18.873 0 0 0-3.553 4.318 9.983 9.983 0 0 0-1.492 5.288c0 .963.269 1.851.81 2.671.54.82 1.22 1.633 2.038 2.436.819.806 1.704 1.61 2.643 2.415a27.918 27.918 0 0 1 2.64 2.574 14.04 14.04 0 0 1 2.042 2.948c.542 1.054.81 2.214.81 3.482 0 1.702-.428 3.337-1.28 4.897-.855 1.563-2.065 2.949-3.634 4.155-1.572 1.207-3.478 2.174-5.731 2.901-2.248.725-4.784 1.092-7.607 1.092-2.34 0-4.507-.243-6.512-.721s-3.748-1.16-5.231-2.041c-1.482-.881-2.65-1.966-3.505-3.25-.855-1.283-1.281-2.747-1.281-4.386 0-1.98.4-3.528 1.2-4.642.804-1.113 1.71-1.919 2.723-2.415 1.01-.495 1.978-.727 2.903-.697.924.032 1.506.202 1.75.512-.451.804-.68 1.701-.68 2.691 0 1.237.342 2.369 1.022 3.39.68 1.022 1.576 1.887 2.692 2.6 1.118.712 2.398 1.268 3.846 1.67 1.444.403 2.935.603 4.47.603 1.538 0 2.835-.169 3.898-.509 1.062-.342 1.936-.776 2.615-1.302.68-.525 1.175-1.1 1.49-1.72.314-.618.47-1.192.47-1.72" id="Fill-313"/><path d="M78.033 81.85c.241-.451.502-.74.782-.86.281-.122.515-.131.707-.025.193.102.324.304.392.599.07.297 0 .655-.207 1.072-.418.906-.899 1.953-1.44 3.139a85.854 85.854 0 0 1-1.78 3.66 50.819 50.819 0 0 1-2.092 3.689 23.631 23.631 0 0 1-2.38 3.216c-.835.94-1.717 1.7-2.64 2.276-.926.576-1.892.863-2.903.863-1.012 0-1.814-.281-2.405-.838a5.302 5.302 0 0 1-1.336-2.013 9.23 9.23 0 0 1-.549-2.457 27.708 27.708 0 0 1-.102-2.121c.034-.417.077-.905.131-1.464.05-.555.113-1.046.181-1.463-.175.384-.33.8-.47 1.255a26 26 0 0 0-.445 1.36 34.141 34.141 0 0 0-.445 1.62c-.313.595-.713 1.22-1.2 1.883a14.18 14.18 0 0 1-1.649 1.857 8.14 8.14 0 0 1-2.04 1.41 5.44 5.44 0 0 1-2.43.55c-.456 0-.918-.085-1.387-.26a3.391 3.391 0 0 1-1.284-.862c-.382-.401-.696-.934-.939-1.596-.244-.661-.368-1.498-.368-2.51 0-1.36.22-2.825.656-4.394.436-1.57 1-3.13 1.7-4.682a44.613 44.613 0 0 1 2.298-4.446 43.043 43.043 0 0 1 2.484-3.765c.82-1.098 1.572-1.97 2.25-2.616.68-.644 1.21-.967 1.596-.967.732 0 1.1.418 1.1 1.254 0 .349-.212.97-.63 1.858-.42.889-.87 1.92-1.357 3.088a49.948 49.948 0 0 0-1.36 3.634c-.42 1.255-.63 2.423-.63 3.504 0 .595.104 1.09.312 1.492.212.398.58.599 1.1.599.56 0 1.178-.382 1.86-1.15.68-.767 1.374-1.717 2.091-2.85a87.307 87.307 0 0 0 2.197-3.715 82.957 82.957 0 0 1 2.194-3.713c.716-1.133 1.38-2.083 1.99-2.85.607-.765 1.158-1.151 1.648-1.151.906 0 1.357.47 1.357 1.412 0 .176-.095.524-.288 1.047-.189.522-.426 1.168-.706 1.936-.28.766-.574 1.612-.887 2.535a79.254 79.254 0 0 0-.892 2.799 39.435 39.435 0 0 0-.706 2.745c-.19.889-.288 1.667-.288 2.328 0 1.013.193 1.674.576 1.988.385.315.818.472 1.31.472 1.011 0 2.111-.725 3.296-2.17 1.182-1.45 2.525-3.515 4.027-6.201" id="Fill-315"/><path d="M92.36 76.83c-.417 0-.959.261-1.62.785-.664.524-1.389 1.23-2.17 2.12a29.957 29.957 0 0 0-2.38 3.112 37.54 37.54 0 0 0-2.223 3.738 29.296 29.296 0 0 0-1.727 4.027c-.469 1.38-.758 2.712-.863 4.002-.069.698-.05 1.255.051 1.673.105.42.23.751.367.994.175.42.107.716-.207.89-.28.21-.666.411-1.154.601-.486.191-1.062.287-1.723.287-1.293 0-2.355-.515-3.19-1.542-.837-1.028-1.256-2.572-1.256-4.63 0-1.115.206-2.378.624-3.79.42-1.415.961-2.86 1.624-4.343a46.562 46.562 0 0 1 2.222-4.34 49.06 49.06 0 0 1 2.405-3.768c.787-1.097 1.51-1.986 2.173-2.668.662-.679 1.186-1.018 1.567-1.018.907 0 1.36.47 1.36 1.412 0 .176-.11.523-.338 1.047a284.73 284.73 0 0 1-.865 1.96 55.106 55.106 0 0 0-1.07 2.617 50.922 50.922 0 0 0-1.022 2.953 39.229 39.229 0 0 1 1.99-2.744 36.742 36.742 0 0 1 2.248-2.538c.87-.906 1.83-1.75 2.878-2.535a16.65 16.65 0 0 1 3.373-1.964 9.16 9.16 0 0 1 3.685-.784c.907 0 1.711.316 2.41.944.692.627.992 1.445.886 2.455-.035.525-.28 1.25-.73 2.172a71.24 71.24 0 0 1-1.568 2.981 588.226 588.226 0 0 0-1.805 3.242 29.13 29.13 0 0 0-1.466 2.982c-.367.891-.556 1.622-.576 2.198-.018.575.27.863.863.863.524 0 1.132-.184 1.83-.55.7-.365 1.456-.906 2.277-1.62.82-.716 1.675-1.596 2.562-2.64a37.506 37.506 0 0 0 2.643-3.56c.28-.452.566-.74.861-.862.298-.122.53-.13.704-.025.176.102.281.304.318.6.032.297-.054.655-.262 1.072-.524.906-1.125 1.952-1.805 3.14a64.675 64.675 0 0 1-2.278 3.66 58.345 58.345 0 0 1-2.667 3.687 27.66 27.66 0 0 1-2.928 3.217c-1.012.941-2.03 1.7-3.06 2.276-1.029.575-2.047.862-3.058.862-.907 0-1.657-.218-2.249-.652a4.623 4.623 0 0 1-1.388-1.624 6.582 6.582 0 0 1-.654-2.117 8.963 8.963 0 0 1-.05-2.144c.106-1.152.382-2.356.837-3.61.45-1.255.974-2.485 1.566-3.687a54.148 54.148 0 0 1 1.831-3.4 149.73 149.73 0 0 0 1.622-2.797c.452-.803.75-1.44.89-1.91s.035-.707-.315-.707" id="Fill-317"/><path d="M117.468 71.445c0 .766-.194 1.533-.575 2.3a11.495 11.495 0 0 1-1.362 2.117 15.894 15.894 0 0 1-1.647 1.753l-.198.18c-.484.44-.88.799-1.188 1.076a2.744 2.744 0 0 1-.08-.838c.018-.279.03-.54.03-.785 0-.244.014-.488.05-.73a4.897 4.897 0 0 0-.392 1.07c-.088.367-.164.725-.236 1.073a6.637 6.637 0 0 0-.104 1.204c0 .697.103 1.42.313 2.17.209.75.425 1.552.657 2.407.225.855.442 1.77.65 2.744.212.977.317 2.04.317 3.191 0 1.36-.273 2.599-.814 3.712a9.54 9.54 0 0 1-2.154 2.904 9.377 9.377 0 0 1-3.14 1.885 10.782 10.782 0 0 1-3.727.653c-1.673 0-3.008-.306-4.001-.916-.995-.61-1.707-1.376-2.144-2.302a6.623 6.623 0 0 1-.63-2.978 9.25 9.25 0 0 1 .525-2.983c.33-.924.775-1.693 1.332-2.3.56-.613 1.153-.919 1.778-.919.175 0 .238.17.187.5-.056.33-.044.706.025 1.124.069.416.288.793.65 1.123.368.333 1.072.498 2.123.498.698 0 1.263-.115 1.699-.34a2.76 2.76 0 0 0 1.042-.915c.265-.386.439-.82.525-1.308.088-.489.132-.995.132-1.517-.035-1.186-.294-2.564-.782-4.133l-.212.471c-.208.349-.445.556-.706.63-.261.069-.487.041-.68-.079a1.042 1.042 0 0 1-.418-.55c-.088-.245-.044-.505.132-.787a39.569 39.569 0 0 0 1.41-2.483c.243-.47.462-.889.654-1.255.19-.365.308-.6.34-.707.138-.522.388-1.237.752-2.142.365-.907.862-1.806 1.5-2.695a9.79 9.79 0 0 1 2.386-2.328c.953-.661 2.11-.993 3.47-.993.94 0 1.595.234 1.963.707.362.47.547.967.547 1.49" id="Fill-319"/><path d="M138.194 81.85c.244-.451.502-.74.783-.86.278-.122.516-.131.704-.025.193.102.325.304.393.599.07.297.019.655-.156 1.072a473.83 473.83 0 0 0-1.437 3.139c-.543 1.185-.823 2.405-1.5 3.66a31.514 31.514 0 0 1-2.354 3.689 18.49 18.49 0 0 1-3.034 3.216 14.591 14.591 0 0 1-3.82 2.276c-1.411.576-2.865.793-5.063.863-1.045.032-2.031-.21-2.955-.628a7.97 7.97 0 0 1-2.433-1.7 7.866 7.866 0 0 1-1.645-2.537 8.147 8.147 0 0 1-.605-3.137c0-2.058.456-4.211 1.361-6.46a25.082 25.082 0 0 1 3.559-6.173c1.462-1.864 3.11-3.407 4.94-4.63 1.83-1.218 3.671-1.83 5.518-1.83.907 0 1.624.158 2.144.472.524.313.917.68 1.179 1.099.263.417.418.854.47 1.308.054.453.08.819.08 1.097 0 1.045-.245 2.215-.731 3.505a17.08 17.08 0 0 1-1.911 3.634c-.786 1.134-1.659 2.085-2.616 2.85-.96.769-1.928 1.153-2.903 1.153-.625 0-1.186-.106-1.674-.316a5.43 5.43 0 0 1-1.307-.783 8.35 8.35 0 0 0-.079.628 6.7 6.7 0 0 0-.026.574c0 1.255.48 2.196 1.438 2.825.96.628 2.18.785 3.662.47 1.482-.314 3.111-1.185 4.892-2.615 1.778-1.43 3.485-3.574 5.126-6.434m-7.848-5.491c-.207 0-.532.168-.968.495-.437.334-.914.786-1.437 1.362a29.134 29.134 0 0 0-1.623 1.96 20.47 20.47 0 0 0-1.516 2.3 2.455 2.455 0 0 0 .735.106c.694 0 1.411-.32 2.143-.966a11.77 11.77 0 0 0 1.908-2.145c.539-.783.906-1.498 1.1-2.145.19-.643.076-.967-.342-.967" id="Fill-321"/><path d="M112.422 61.416c2.638-.053-5.138.135-7.515.335-2.37.201-4.68.42-6.934.65-2.238.238-4.49.444-6.74.623a78.71 78.71 0 0 1-6.963.241c-2.393-.018-4.297-.166-5.717-.44-1.413-.272-2.474-.61-3.181-1.009-.707-.403-1.102-.827-1.197-1.276a1.772 1.772 0 0 1 .19-1.263c.226-.396.56-.719.999-.98.437-.26.859-.386 1.246-.383.25.176.612.36 1.098.55.49.19 1.134.364 1.94.523.8.161 1.806.295 3.003.402a51.72 51.72 0 0 0 4.206.181 148.26 148.26 0 0 0 7.592-.116c2.317-.097 4.612-.213 6.85-.344 2.253-.133 4.538-.248 6.857-.347 2.326-.1 4.827-.137 7.513-.115 2.057.016 3.609.253 4.649.71 1.05.458 1.72.955 2.006 1.495.29.54.235 1.033-.158 1.478-.394.446-.983.668-1.761.66-.053-.132-.171-.264-.365-.397a4.783 4.783 0 0 0-.581-.365c-.245-.135-1.62-.453-1.101-.373-1.72-.27-3.313-.493-5.936-.44" id="Fill-323"/><path d="M28.375 22.643s-9.534 11.734-12.121 13.64c-2.586 1.903.235 5.31.235 5.31s7.88-4.257 8.44-5.152c.56-.897 6.567-10.94 7.144-11.843.578-.904-.684-1.955-.684-1.955h-3.014z" id="Fill-325"/><path d="M35.956 23.657s-3.642 9.138-4.086 12.061c-.445 2.924.345 7.013 1.431 7.184 1.087.172 7.757-13.623 7.757-13.623l-.342-3.99-4.76-1.632z" id="Fill-327"/><path d="M79.88 27.195s-3.474 7.406-3.925 8.334c-.452.93-1.416.603-1.416.603s.614-3.766 1.096-4.61c.483-.844 1.421-2.447 2.44-4.617 1.02-2.17 1.364-1.753 1.435-1.554.071.2.37 1.844.37 1.844" id="Fill-329"/><path d="M56.687 42.212c.431-.528 2.863-3.333 3.194-3.894.33-.56.057-1.754-.288-1.769-.345-.014-1.554.058-1.769.13-.216.071-3.294 2.862-3.294 2.905 0 .043.388 2.302.474 2.316.087.014 1.683.312 1.683.312" id="Fill-331"/><path d="M112.77 43.773s2.455-2.881 2.95-3.376l2.228-4.539-1.348-.193s-2.256 1.183-2.366 1.348c-.11.165-3.494 3.659-3.384 3.852.11.192 1.92 2.908 1.92 2.908" id="Fill-333"/><path d="M60.76 93.847s1.848-3.125 2.214-4.123c.367-.998-.366-1.467-.366-1.467s-2.466 1.182-2.527 1.263c-.061.082-1.018 2.832-.978 2.914.04.08 1.657 1.413 1.657 1.413" id="Fill-335"/><path d="M113.45 77.996c-.35.299-1.807 1.72-1.983 1.895-.176.176-.684-1.737-.65-1.86.036-.123.948-3.142 1.106-3.159.158-.017 2.142.053 2.142.106s-.615 3.019-.615 3.019" id="Fill-337"/><path d="M165.777 71.445c0 .766-.193 1.533-.574 2.3a11.495 11.495 0 0 1-1.362 2.117 15.894 15.894 0 0 1-1.647 1.753c-.068.06-.134.122-.198.18-.484.44-.88.799-1.188 1.076a2.744 2.744 0 0 1-.08-.838c.018-.279.03-.54.03-.785 0-.244.013-.488.05-.73a4.897 4.897 0 0 0-.392 1.07c-.089.367-.165.725-.237 1.073a6.637 6.637 0 0 0-.103 1.204c0 .697.103 1.42.313 2.17.208.75.425 1.552.656 2.407.226.855.443 1.77.65 2.744.212.977.317 2.04.317 3.191 0 1.36-.274 2.599-.813 3.712a9.54 9.54 0 0 1-2.155 2.904 9.377 9.377 0 0 1-3.14 1.885 10.778 10.778 0 0 1-3.726.653c-1.674 0-3.009-.306-4.002-.916-.994-.61-1.706-1.376-2.143-2.302a6.61 6.61 0 0 1-.629-2.978 9.222 9.222 0 0 1 .524-2.983c.33-.924.774-1.693 1.331-2.3.56-.613 1.154-.919 1.778-.919.176 0 .238.17.187.5-.055.33-.043.706.026 1.124.068.416.287.793.65 1.123.368.333 1.072.498 2.122.498.698 0 1.263-.115 1.7-.34a2.76 2.76 0 0 0 1.042-.915c.264-.386.438-.82.524-1.308.088-.489.132-.995.132-1.517-.034-1.186-.294-2.564-.782-4.133l-.212.471c-.207.349-.444.556-.705.63-.262.069-.487.041-.68-.079a1.042 1.042 0 0 1-.419-.55c-.087-.245-.044-.505.132-.787a39.569 39.569 0 0 0 1.41-2.483c.244-.47.462-.889.655-1.255.19-.365.307-.6.34-.707.137-.522.388-1.237.752-2.142.364-.907.861-1.806 1.5-2.695a9.79 9.79 0 0 1 2.385-2.328c.953-.661 2.111-.993 3.471-.993.941 0 1.594.234 1.962.707.363.47.548.967.548 1.49" id="Fill-339"/><path d="M161.76 77.996c-.35.299-1.807 1.72-1.983 1.895-.176.176-.685-1.737-.65-1.86.036-.123.948-3.142 1.106-3.159.158-.017 2.142.053 2.142.106s-.615 3.019-.615 3.019" id="Fill-341"/><path d="M155.372 80.108l-1.367-.436s-2.794 4.91-3.351 5.822c-.557.91-1.642 2.643-1.824 2.942-.18.298 3.029-.391 3.029-.391s1.24-2.574 1.497-3.15c.258-.573 1.209-2.246 1.473-2.823" id="Fill-343"/></g></g></g></g></svg>